<?xml version="1.0" encoding="utf-8"?>
<!-- Generator: Adobe Illustrator 24.1.0, SVG Export Plug-In . SVG Version: 6.00 Build 0)  -->
<svg version="1.1" id="レイヤー_1" xmlns="http://www.w3.org/2000/svg" xmlns:xlink="http://www.w3.org/1999/xlink" x="0px"
	 y="0px" width="40px" height="40px" viewBox="0 0 40 40" style="enable-background:new 0 0 40 40;" xml:space="preserve">
<style type="text/css">
	.st0{fill:#A2CB2F;}
</style>
<path class="st0" d="M24.022,22.433c-0.207-0.003-0.41-0.083-0.566-0.232l-2.252-2.151c-0.403,0.032-0.808,0.044-1.209,0.037
	c-5.753-0.097-10.368-4.055-10.287-8.822s4.827-8.566,10.58-8.468s10.368,4.055,10.287,8.822c-0.056,3.331-2.373,6.278-5.963,7.663
	l0.257,2.215c0.041,0.351-0.143,0.691-0.46,0.848C24.287,22.407,24.154,22.435,24.022,22.433z M21.521,18.339
	c0.21,0.004,0.412,0.086,0.566,0.232l0.847,0.809l-0.066-0.57c-0.046-0.398,0.196-0.774,0.578-0.896
	c3.264-1.044,5.403-3.526,5.451-6.324c0.065-3.841-3.81-7.033-8.637-7.115s-8.808,2.977-8.873,6.818s3.81,7.033,8.637,7.115
	c0.461,0.008,0.93-0.014,1.392-0.065C21.451,18.34,21.486,18.339,21.521,18.339z"/>
<g>
	<path class="st0" d="M6.321,36.629c-0.127,0.409-0.437,0.564-0.804,0.564c-0.113,0-0.24-0.014-0.367-0.056
		c-0.423-0.113-0.733-0.424-0.733-0.832c0-0.099,0.014-0.198,0.056-0.31l3.653-9.394c0.268-0.677,0.776-0.96,1.425-0.96
		c0.635,0,1.157,0.283,1.425,0.96l3.668,9.436c0.056,0.113,0.07,0.212,0.07,0.31c0,0.395-0.325,0.691-0.748,0.804
		c-0.127,0.028-0.254,0.042-0.367,0.042c-0.367,0-0.677-0.169-0.818-0.564l-0.931-2.567H7.252L6.321,36.629z M11.272,32.37
		l-1.199-3.272c-0.198-0.536-0.381-1.128-0.522-1.749c-0.155,0.621-0.31,1.185-0.508,1.749L7.816,32.37H11.272z"/>
	<path class="st0" d="M21.458,25.74c2.102,0,3.343,1.03,3.343,2.779c0,1.383-0.62,2.201-1.848,2.61
		c1.481,0.324,2.228,1.283,2.228,2.821c0,1.961-1.311,3.145-3.568,3.145H17.96c-1.241,0-1.749-0.522-1.749-1.791v-7.772
		c0-1.269,0.508-1.791,1.749-1.791H21.458z M21.233,30.353c1.001,0,1.608-0.578,1.608-1.524c0-0.945-0.55-1.439-1.636-1.439h-2.708
		c-0.254,0-0.409,0.155-0.409,0.437v2.525H21.233z M18.087,35.007c0,0.282,0.155,0.423,0.423,0.423h2.807
		c1.185,0,1.848-0.62,1.848-1.735c0-1.1-0.677-1.721-1.876-1.721h-3.202V35.007z"/>
	<path class="st0" d="M35.834,28.124c0.043,0.127,0.07,0.254,0.07,0.367c0,0.409-0.31,0.663-0.663,0.79
		c-0.169,0.056-0.325,0.085-0.48,0.085c-0.338,0-0.649-0.141-0.804-0.522c-0.395-0.874-1.002-1.58-2.412-1.58
		c-1.946,0-3.117,1.551-3.117,4.147c0,2.525,1.171,4.161,3.145,4.161c1.509,0,2.144-0.889,2.483-1.833
		c0.141-0.409,0.479-0.592,0.86-0.592c0.141,0,0.283,0.028,0.437,0.07c0.353,0.113,0.691,0.381,0.691,0.804
		c0,0.099-0.014,0.211-0.056,0.325c-0.48,1.298-1.65,3.004-4.401,3.004c-3.244,0-5.191-2.285-5.191-5.953
		c0-3.526,1.932-5.896,5.12-5.896C34.212,25.5,35.397,27.009,35.834,28.124z"/>
</g>
</svg>
