<?xml version="1.0" encoding="utf-8"?>
<!-- Generator: Adobe Illustrator 24.1.0, SVG Export Plug-In . SVG Version: 6.00 Build 0)  -->
<svg version="1.1" id="レイヤー_1" xmlns="http://www.w3.org/2000/svg" xmlns:xlink="http://www.w3.org/1999/xlink" x="0px"
	 y="0px" width="40px" height="40px" viewBox="0 0 40 40" style="enable-background:new 0 0 40 40;" xml:space="preserve">
<style type="text/css">
	.st0{fill:#A2CB2F;}
</style>
<g id="_1">
	<path class="st0" d="M10.327,35.834c-3.658,0-6.624-2.965-6.624-6.623c0-3.658,2.965-6.624,6.623-6.624s6.624,2.965,6.624,6.623
		c0,0.001,0,0.001,0,0.002C16.946,32.867,13.983,35.83,10.327,35.834z M10.327,24.973c-2.341,0-4.239,1.897-4.239,4.238
		s1.897,4.239,4.238,4.239s4.239-1.897,4.239-4.238c0,0,0-0.001,0-0.001C14.563,26.872,12.667,24.976,10.327,24.973z"/>
	<path class="st0" d="M29.202,31.462c-3.658,0-6.624-2.965-6.624-6.623c0-3.658,2.965-6.624,6.623-6.624
		c3.658,0,6.624,2.965,6.624,6.623c0,0,0,0.001,0,0.001C35.82,28.495,32.858,31.458,29.202,31.462z M29.202,20.601
		c-2.341,0-4.239,1.897-4.239,4.238s1.897,4.239,4.238,4.239s4.239-1.897,4.239-4.238c0-0.001,0-0.001,0-0.002
		C33.437,22.499,31.541,20.604,29.202,20.601z"/>
	<path class="st0" d="M15.758,30.404c-0.659,0-1.192-0.534-1.192-1.192V9.546c0-0.557,0.386-1.04,0.929-1.163l18.874-4.276
		c0.642-0.145,1.281,0.258,1.426,0.9c0.02,0.086,0.029,0.175,0.029,0.263v19.569c0,0.659-0.534,1.192-1.192,1.192
		s-1.192-0.534-1.192-1.192V6.763L16.95,10.499v18.713C16.95,29.87,16.416,30.404,15.758,30.404L15.758,30.404z"/>
	<path class="st0" d="M15.757,16.169c-0.659,0.001-1.194-0.531-1.195-1.19c-0.001-0.56,0.387-1.045,0.933-1.166l18.874-4.276
		c0.642-0.146,1.281,0.257,1.427,0.899c0.146,0.642-0.257,1.281-0.899,1.427l-18.874,4.276
		C15.935,16.159,15.846,16.169,15.757,16.169z"/>
</g>
</svg>
