<?xml version="1.0" encoding="utf-8"?>
<!-- Generator: Adobe Illustrator 24.1.0, SVG Export Plug-In . SVG Version: 6.00 Build 0)  -->
<svg version="1.1" id="レイヤー_1" xmlns="http://www.w3.org/2000/svg" xmlns:xlink="http://www.w3.org/1999/xlink" x="0px"
	 y="0px" width="40px" height="40px" viewBox="0 0 40 40" style="enable-background:new 0 0 40 40;" xml:space="preserve">
<style type="text/css">
	.st0{fill:#A2CB2F;}
</style>
<g id="Layer_x0020_1">
	<path class="st0" d="M35.036,8.411l0.077,0.077c0.85,1.236,1.236,2.703,1.004,4.094c-0.154,1.39-0.927,2.703-2.163,3.63
		L11.169,33.359l-5.947,0.077c-0.386,0-0.772-0.077-1.159-0.309c-0.386-0.154-0.695-0.386-0.927-0.772
		c-0.232-0.309-0.463-0.695-0.541-1.081c0-0.386,0-0.772,0.154-1.236l1.699-5.638L27.235,7.252c1.236-0.927,2.703-1.236,4.094-1.004
		C32.796,6.402,34.109,7.175,35.036,8.411z M27.621,10.419l3.476,4.557l1.236-0.927c0.618-0.463,1.004-1.159,1.081-1.854
		c0.077-0.695-0.077-1.468-0.541-2.085l-0.077-0.077c-0.463-0.618-1.081-1.004-1.854-1.081c-0.695-0.154-1.39,0.077-2.008,0.463
		L27.621,10.419z M28.934,16.598l-3.476-4.557L8.543,24.785l3.399,4.557L28.934,16.598z M9.547,30.656l-2.935-3.939l-1.236,4.016
		L9.547,30.656z"/>
</g>
</svg>
