<?xml version="1.0" encoding="utf-8"?>
<!-- Generator: Adobe Illustrator 24.1.0, SVG Export Plug-In . SVG Version: 6.00 Build 0)  -->
<svg version="1.1" id="レイヤー_1" xmlns="http://www.w3.org/2000/svg" xmlns:xlink="http://www.w3.org/1999/xlink" x="0px"
	 y="0px" width="40px" height="40px" viewBox="0 0 40 40" style="enable-background:new 0 0 40 40;" xml:space="preserve">
<style type="text/css">
	.st0{fill:#A2CB2F;}
</style>
<g id="Layer_2">
	<g>
		<path class="st0" d="M35.989,9.387c-0.386,0-0.699-0.313-0.699-0.699V4.893h-3.794c-0.386,0-0.699-0.313-0.699-0.699
			s0.313-0.699,0.699-0.699h4.494c0.386,0,0.699,0.313,0.699,0.699v4.494C36.688,9.074,36.375,9.387,35.989,9.387z"/>
		<path class="st0" d="M4.533,9.387c-0.386,0-0.699-0.313-0.699-0.699V4.194c0-0.386,0.313-0.699,0.699-0.699h4.494
			c0.386,0,0.699,0.313,0.699,0.699S9.413,4.893,9.027,4.893H5.232v3.794C5.232,9.074,4.919,9.387,4.533,9.387z"/>
		<path class="st0" d="M9.027,36.349H4.533c-0.386,0-0.699-0.313-0.699-0.699v-4.494c0-0.386,0.313-0.699,0.699-0.699
			c0.386,0,0.699,0.313,0.699,0.699v3.794h3.794c0.386,0,0.699,0.313,0.699,0.699S9.413,36.349,9.027,36.349z"/>
		<path class="st0" d="M35.989,36.349h-4.494c-0.386,0-0.699-0.313-0.699-0.699s0.313-0.699,0.699-0.699h3.794v-3.794
			c0-0.386,0.313-0.699,0.699-0.699s0.699,0.313,0.699,0.699v4.494C36.688,36.036,36.375,36.349,35.989,36.349z"/>
		<path class="st0" d="M16.891,17.251H7.903c-0.386,0-0.699-0.313-0.699-0.699V7.564c0-0.386,0.313-0.699,0.699-0.699h8.987
			c0.386,0,0.699,0.313,0.699,0.699v8.987C17.59,16.938,17.277,17.251,16.891,17.251z M8.603,15.852h7.589V8.264H8.603V15.852z"/>
		<path class="st0" d="M32.619,17.251h-8.987c-0.386,0-0.699-0.313-0.699-0.699V7.564c0-0.386,0.313-0.699,0.699-0.699h8.987
			c0.386,0,0.699,0.313,0.699,0.699v8.987C33.318,16.938,33.005,17.251,32.619,17.251z M24.331,15.852h7.589V8.264h-7.589V15.852z"
			/>
		<path class="st0" d="M16.891,32.979H7.903c-0.386,0-0.699-0.313-0.699-0.699v-8.988c0-0.386,0.313-0.699,0.699-0.699h8.987
			c0.386,0,0.699,0.313,0.699,0.699v8.988C17.59,32.666,17.277,32.979,16.891,32.979z M8.603,31.58h7.589v-7.589H8.603V31.58z"/>
		<path class="st0" d="M23.631,28.485c-0.386,0-0.699-0.313-0.699-0.699v-4.494c0-0.386,0.313-0.699,0.699-0.699h4.494
			c0.386,0,0.699,0.313,0.699,0.699s-0.313,0.699-0.699,0.699h-3.794v3.794C24.331,28.172,24.018,28.485,23.631,28.485z"/>
		<path class="st0" d="M32.619,32.979h-4.494c-0.386,0-0.699-0.313-0.699-0.699c0-0.386,0.313-0.699,0.699-0.699h3.794v-3.795
			c0-0.386,0.313-0.699,0.699-0.699c0.386,0,0.699,0.313,0.699,0.699v4.494C33.318,32.666,33.005,32.979,32.619,32.979z"/>
		<path class="st0" d="M29.248,29.608h-2.247c-0.386,0-0.699-0.313-0.699-0.699v-2.247c0-0.386,0.313-0.699,0.699-0.699h2.247
			c0.386,0,0.699,0.313,0.699,0.699v2.247C29.947,29.295,29.634,29.608,29.248,29.608z M27.701,28.21h0.848v-0.848h-0.848V28.21z"/>
	</g>
</g>
<path class="st0" d="M29.427,14.344H26.26c-0.386,0-0.699-0.313-0.699-0.699v-3.168c0-0.386,0.313-0.699,0.699-0.699h3.167
	c0.386,0,0.699,0.313,0.699,0.699v3.168C30.126,14.031,29.813,14.344,29.427,14.344z M26.959,12.946h1.769v-1.769h-1.769V12.946z"/>
</svg>
