<?xml version="1.0" encoding="utf-8"?>
<!-- Generator: Adobe Illustrator 24.1.0, SVG Export Plug-In . SVG Version: 6.00 Build 0)  -->
<svg version="1.1" id="レイヤー_1" xmlns="http://www.w3.org/2000/svg" xmlns:xlink="http://www.w3.org/1999/xlink" x="0px"
	 y="0px" width="40px" height="40px" viewBox="0 0 40 40" style="enable-background:new 0 0 40 40;" xml:space="preserve">
<style type="text/css">
	.st0{fill:url(#SVGID_1_);}
	.st1{fill:url(#SVGID_2_);}
	.st2{fill:url(#SVGID_3_);}
</style>
<linearGradient id="SVGID_1_" gradientUnits="userSpaceOnUse" x1="4.3017" y1="19.8787" x2="13.4901" y2="19.8787">
	<stop  offset="0.9694" style="stop-color:#EEB033"/>
	<stop  offset="1" style="stop-color:#EEB033"/>
	<stop  offset="1" style="stop-color:#EEB033"/>
	<stop  offset="1" style="stop-color:#EEB033"/>
	<stop  offset="1" style="stop-color:#2F66B0"/>
</linearGradient>
<path class="st0" d="M8.591,12.99c0.734-0.649,1.154-1.583,1.154-2.562V5.453l2.294,2.294c0.332,0.332,0.87,0.331,1.202,0
	c0.161-0.16,0.249-0.374,0.249-0.601c0-0.227-0.088-0.441-0.249-0.601L9.497,2.801L9.454,2.762C9.139,2.487,8.663,2.484,8.345,2.756
	L4.55,6.546C4.39,6.706,4.301,6.92,4.302,7.147c0,0.227,0.088,0.441,0.249,0.601c0.321,0.321,0.881,0.321,1.202,0l2.294-2.294v4.975
	c0,0.493-0.212,0.962-0.581,1.288l-1.921,1.697c-0.737,0.645-1.159,1.577-1.157,2.555c0,0.679,0.197,1.338,0.572,1.905
	c0.4,0.603,0.97,1.054,1.647,1.304l3.976,1.492c0.34,0.125,0.625,0.35,0.824,0.65c0.19,0.287,0.29,0.621,0.289,0.967
	c0.001,0.492-0.211,0.958-0.584,1.282l-1.905,1.677c-0.737,0.649-1.16,1.585-1.16,2.567v8.54c0,0.469,0.381,0.85,0.85,0.85
	s0.85-0.381,0.85-0.85v-8.54c0-0.494,0.213-0.965,0.583-1.29l1.903-1.676c0.74-0.646,1.164-1.579,1.163-2.56
	c0-0.679-0.197-1.337-0.572-1.904c-0.4-0.603-0.97-1.054-1.647-1.304l-3.975-1.492c-0.34-0.125-0.625-0.35-0.824-0.65
	c-0.189-0.288-0.29-0.622-0.29-0.968c-0.001-0.49,0.21-0.956,0.579-1.277L8.591,12.99z"/>
<linearGradient id="SVGID_2_" gradientUnits="userSpaceOnUse" x1="15.1262" y1="20.3034" x2="24.3145" y2="20.3034" gradientTransform="matrix(-1 0 0 -1 39.3027 40.1821)">
	<stop  offset="0.9694" style="stop-color:#EEB033"/>
	<stop  offset="1" style="stop-color:#EEB033"/>
	<stop  offset="1" style="stop-color:#EEB033"/>
	<stop  offset="1" style="stop-color:#EEB033"/>
	<stop  offset="1" style="stop-color:#2F66B0"/>
</linearGradient>
<path class="st1" d="M19.887,26.767c-0.734,0.649-1.155,1.582-1.155,2.562v4.975l-2.294-2.294c-0.321-0.321-0.88-0.321-1.202,0
	c-0.161,0.16-0.249,0.374-0.249,0.601c0,0.227,0.088,0.441,0.249,0.601l3.745,3.745l0.029,0.027c0.315,0.288,0.8,0.293,1.122,0.018
	l3.795-3.79c0.161-0.16,0.249-0.374,0.249-0.601c0-0.227-0.088-0.44-0.249-0.601c-0.321-0.321-0.881-0.321-1.202,0l-2.294,2.294
	v-4.975c0-0.493,0.212-0.962,0.581-1.288l1.92-1.697c0.738-0.645,1.16-1.577,1.158-2.555c0-0.679-0.197-1.337-0.572-1.905
	c-0.4-0.603-0.97-1.054-1.647-1.305l-3.976-1.491c-0.335-0.123-0.627-0.354-0.823-0.65c-0.189-0.288-0.29-0.622-0.29-0.968
	c-0.001-0.491,0.211-0.958,0.584-1.282l1.905-1.677c0.737-0.649,1.16-1.585,1.16-2.567v-8.54c0-0.469-0.381-0.85-0.85-0.85
	c-0.469,0-0.85,0.381-0.85,0.85v8.54c0,0.494-0.213,0.965-0.583,1.29l-1.903,1.676c-0.74,0.645-1.164,1.579-1.162,2.56
	c0,0.68,0.198,1.338,0.572,1.904c0.4,0.603,0.97,1.054,1.647,1.304l3.976,1.492c0.34,0.125,0.625,0.35,0.824,0.65
	c0.19,0.288,0.29,0.622,0.289,0.968c0.002,0.49-0.209,0.955-0.579,1.277L19.887,26.767z"/>
<linearGradient id="SVGID_3_" gradientUnits="userSpaceOnUse" x1="25.6744" y1="19.8785" x2="34.8631" y2="19.8785">
	<stop  offset="0.9694" style="stop-color:#EEB033"/>
	<stop  offset="1" style="stop-color:#EEB033"/>
	<stop  offset="1" style="stop-color:#EEB033"/>
	<stop  offset="1" style="stop-color:#EEB033"/>
	<stop  offset="1" style="stop-color:#2F66B0"/>
</linearGradient>
<path class="st2" d="M32.549,19.078l-3.976-1.492c-0.339-0.125-0.624-0.35-0.823-0.65c-0.189-0.287-0.29-0.622-0.29-0.968
	c-0.001-0.49,0.209-0.956,0.579-1.277l1.925-1.701c0.734-0.649,1.154-1.583,1.154-2.562V5.453l2.294,2.294
	c0.331,0.331,0.87,0.332,1.202,0c0.161-0.16,0.249-0.374,0.249-0.601c0-0.227-0.088-0.441-0.249-0.601L30.87,2.801l-0.043-0.039
	c-0.314-0.275-0.788-0.278-1.104-0.009l-3.799,3.793c-0.161,0.16-0.249,0.374-0.249,0.601c0,0.227,0.088,0.44,0.249,0.601
	c0.331,0.331,0.871,0.331,1.201,0l2.294-2.294v4.975c0,0.493-0.212,0.963-0.581,1.288l-1.92,1.697
	c-0.738,0.645-1.16,1.577-1.157,2.555c0,0.679,0.197,1.337,0.571,1.905c0.401,0.603,0.971,1.054,1.647,1.304l3.976,1.492
	c0.339,0.125,0.624,0.35,0.824,0.65c0.189,0.288,0.29,0.622,0.289,0.968c0.001,0.492-0.211,0.958-0.584,1.282l-1.905,1.677
	c-0.737,0.649-1.16,1.585-1.16,2.567v8.54c0,0.469,0.381,0.85,0.85,0.85c0.468,0,0.849-0.381,0.849-0.85v-8.54
	c0-0.494,0.213-0.964,0.584-1.29l1.903-1.676c0.74-0.646,1.164-1.579,1.163-2.56c0-0.679-0.197-1.337-0.572-1.904
	C33.796,19.78,33.226,19.328,32.549,19.078z"/>
</svg>
